<svg width="23" height="23" viewBox="0 0 23 23" fill="none" xmlns="http://www.w3.org/2000/svg">
<g id="Group">
<path id="Vector" d="M2.24856 16.5119C1.28331 12.6509 0.800681 10.7215 1.81431 9.42325C2.82793 8.125 4.81806 8.125 8.79718 8.125H14.0059C17.9862 8.125 19.9752 8.125 20.9888 9.42325C22.0024 10.7215 21.5198 12.652 20.5546 16.5119C19.9403 18.9678 19.6343 20.1951 18.7186 20.9106C17.8028 21.625 16.5372 21.625 14.0059 21.625H8.79718C6.26593 21.625 5.00031 21.625 4.08456 20.9106C3.16881 20.1951 2.86168 18.9678 2.24856 16.5119Z" stroke="white" stroke-width="1.5"/>
<path id="Vector_2" d="M19.8389 8.6875L19.0401 5.75687C18.7319 4.62625 18.5777 4.0615 18.2616 3.63512C17.9464 3.21152 17.5183 2.8852 17.0264 2.6935C16.5314 2.5 15.9464 2.5 14.7764 2.5M2.96387 8.6875L3.76262 5.75687C4.07087 4.62625 4.22499 4.0615 4.54112 3.63512C4.85632 3.21152 5.28439 2.8852 5.77637 2.6935C6.27137 2.5 6.85637 2.5 8.02637 2.5" stroke="white" stroke-width="1.5"/>
<path id="Vector_3" d="M8.02637 2.5C8.02637 2.20163 8.14489 1.91548 8.35587 1.7045C8.56685 1.49353 8.853 1.375 9.15137 1.375H13.6514C13.9497 1.375 14.2359 1.49353 14.4469 1.7045C14.6578 1.91548 14.7764 2.20163 14.7764 2.5C14.7764 2.79837 14.6578 3.08452 14.4469 3.29549C14.2359 3.50647 13.9497 3.625 13.6514 3.625H9.15137C8.853 3.625 8.56685 3.50647 8.35587 3.29549C8.14489 3.08452 8.02637 2.79837 8.02637 2.5Z" stroke="white" stroke-width="1.5"/>
</g>
</svg>
