<svg width="17" height="18" viewBox="0 0 17 18" fill="none" xmlns="http://www.w3.org/2000/svg">
<g id="instagram" opacity="0.9">
<path d="M8.3 2.19995C10.5 2.19995 10.8 2.19995 11.7 2.19995C12.5 2.19995 12.9 2.39995 13.2 2.49995C13.6 2.69995 13.9 2.79995 14.2 3.09995C14.5 3.39995 14.7 3.69995 14.8 4.09995C14.9 4.39995 15 4.79995 15.1 5.59995C15.1 6.49995 15.1 6.69995 15.1 8.99995C15.1 11.3 15.1 11.5 15.1 12.4C15.1 13.2 14.9 13.6 14.8 13.9C14.6 14.3 14.5 14.6 14.2 14.9C13.9 15.2 13.6 15.4 13.2 15.5C12.9 15.6 12.5 15.7 11.7 15.8C10.8 15.8 10.6 15.8 8.3 15.8C6 15.8 5.8 15.8 4.9 15.8C4.1 15.8 3.7 15.6 3.4 15.5C3 15.3 2.7 15.2 2.4 14.9C2.1 14.6 1.9 14.3 1.8 13.9C1.7 13.6 1.6 13.2 1.5 12.4C1.5 11.5 1.5 11.3 1.5 8.99995C1.5 6.69995 1.5 6.49995 1.5 5.59995C1.5 4.79995 1.7 4.39995 1.8 4.09995C2 3.69995 2.1 3.39995 2.4 3.09995C2.7 2.79995 3 2.59995 3.4 2.49995C3.7 2.39995 4.1 2.29995 4.9 2.19995C5.8 2.19995 6.1 2.19995 8.3 2.19995ZM8.3 0.699951C6 0.699951 5.8 0.699951 4.9 0.699951C4 0.699951 3.4 0.899952 2.9 1.09995C2.4 1.29995 1.9 1.59995 1.4 2.09995C0.900001 2.59995 0.700001 2.99995 0.400001 3.59995C0.200001 4.09995 0.1 4.69995 0 5.59995C0 6.49995 0 6.79995 0 8.99995C0 11.3 0 11.5 0 12.4C0 13.3 0.200001 13.9 0.400001 14.4C0.600001 14.9 0.900001 15.4 1.4 15.9C1.9 16.4 2.3 16.6 2.9 16.9C3.4 17.1 4 17.1999 4.9 17.2999C5.8 17.2999 6.1 17.2999 8.3 17.2999C10.5 17.2999 10.8 17.2999 11.7 17.2999C12.6 17.2999 13.2 17.1 13.7 16.9C14.2 16.7 14.7 16.4 15.2 15.9C15.7 15.4 15.9 15 16.2 14.4C16.4 13.9 16.5 13.3 16.6 12.4C16.6 11.5 16.6 11.2 16.6 8.99995C16.6 6.79995 16.6 6.49995 16.6 5.59995C16.6 4.69995 16.4 4.09995 16.2 3.59995C16 3.09995 15.7 2.59995 15.2 2.09995C14.7 1.59995 14.3 1.39995 13.7 1.09995C13.2 0.899952 12.6 0.799951 11.7 0.699951C10.8 0.699951 10.6 0.699951 8.3 0.699951Z" fill="white"/>
<path d="M8.3 4.69995C5.9 4.69995 4 6.59995 4 8.99995C4 11.4 5.9 13.3 8.3 13.3C10.7 13.3 12.6 11.4 12.6 8.99995C12.6 6.59995 10.7 4.69995 8.3 4.69995ZM8.3 11.8C6.8 11.8 5.5 10.6 5.5 8.99995C5.5 7.49995 6.7 6.19995 8.3 6.19995C9.8 6.19995 11.1 7.39995 11.1 8.99995C11.1 10.5 9.8 11.8 8.3 11.8Z" fill="white"/>
<path d="M12.7 5.59995C13.2523 5.59995 13.7 5.15224 13.7 4.59995C13.7 4.04767 13.2523 3.59995 12.7 3.59995C12.1477 3.59995 11.7 4.04767 11.7 4.59995C11.7 5.15224 12.1477 5.59995 12.7 5.59995Z" fill="white"/>
</g>
</svg>
