<svg width="20" height="20" viewBox="0 0 20 20" fill="none" xmlns="http://www.w3.org/2000/svg">
<g id="material-symbols-light:mail-outline-rounded">
<path id="Vector" d="M3.84667 15.8334C3.46278 15.8334 3.1425 15.7051 2.88583 15.4484C2.62917 15.1917 2.50056 14.8712 2.5 14.4867V5.51341C2.5 5.12953 2.62861 4.80925 2.88583 4.55258C3.14306 4.29591 3.46306 4.1673 3.84583 4.16675H16.1542C16.5375 4.16675 16.8575 4.29536 17.1142 4.55258C17.3708 4.8098 17.4994 5.13008 17.5 5.51341V14.4876C17.5 14.8709 17.3714 15.1912 17.1142 15.4484C16.8569 15.7056 16.5369 15.834 16.1542 15.8334H3.84667ZM16.6667 5.73758L10.3733 9.85758C10.3144 9.88814 10.255 9.91397 10.195 9.93508C10.1344 9.95564 10.0694 9.96591 10 9.96591C9.93056 9.96591 9.86556 9.95564 9.805 9.93508C9.74444 9.91453 9.685 9.88869 9.62667 9.85758L3.33333 5.73675V14.4867C3.33333 14.6367 3.38139 14.7598 3.4775 14.8559C3.57361 14.952 3.69667 15.0001 3.84667 15.0001H16.1542C16.3036 15.0001 16.4264 14.952 16.5225 14.8559C16.6186 14.7598 16.6667 14.6367 16.6667 14.4867V5.73758ZM10 9.16675L16.41 5.00008H3.59L10 9.16675ZM3.33333 5.91341V5.23758V5.26591V5.00008V5.26675V5.22341V5.91341Z" fill="#F8F8F8"/>
</g>
</svg>
