<svg width="18" height="18" viewBox="0 0 18 18" fill="none" xmlns="http://www.w3.org/2000/svg">
<g id="mdi-light:phone">
<path id="Vector" d="M14.625 16.5C14.9234 16.5 15.2095 16.3815 15.4205 16.1705C15.6315 15.9595 15.75 15.6734 15.75 15.375V12.75C15.75 12.4516 15.6315 12.1655 15.4205 11.9545C15.2095 11.7435 14.9234 11.625 14.625 11.625C13.7475 11.625 12.885 11.49 12.06 11.2125C11.8628 11.1502 11.6522 11.1432 11.4513 11.1921C11.2503 11.241 11.0666 11.3441 10.92 11.49L9.84 12.57C7.97418 11.5518 6.44069 10.0183 5.4225 8.1525L6.495 7.08C6.8025 6.7875 6.915 6.3525 6.78 5.9325C6.51 5.115 6.375 4.2525 6.375 3.375C6.375 3.07663 6.25647 2.79048 6.0455 2.5795C5.83452 2.36853 5.54837 2.25 5.25 2.25H2.625C2.32663 2.25 2.04048 2.36853 1.8295 2.5795C1.61853 2.79048 1.5 3.07663 1.5 3.375C1.5 10.6125 7.3875 16.5 14.625 16.5ZM2.625 3H5.25C5.34946 3 5.44484 3.03951 5.51516 3.10984C5.58549 3.18016 5.625 3.27554 5.625 3.375C5.625 4.335 5.775 5.2725 6.0675 6.165C6.105 6.27 6.0975 6.42 5.9775 6.54L4.5 8.01C5.7375 10.4325 7.5525 12.2475 9.9825 13.5L11.445 12.0225C11.55 11.9175 11.6925 11.8875 11.8275 11.925C12.7275 12.225 13.665 12.375 14.625 12.375C14.7245 12.375 14.8198 12.4145 14.8902 12.4848C14.9605 12.5552 15 12.6505 15 12.75V15.375C15 15.4745 14.9605 15.5698 14.8902 15.6402C14.8198 15.7105 14.7245 15.75 14.625 15.75C7.8 15.75 2.25 10.2 2.25 3.375C2.25 3.27554 2.28951 3.18016 2.35984 3.10984C2.43016 3.03951 2.52554 3 2.625 3Z" fill="#F8F8F8"/>
</g>
</svg>
