<svg width="23" height="22" viewBox="0 0 23 22" fill="none" xmlns="http://www.w3.org/2000/svg">
<path id="Vector" opacity="0.9" d="M22.5206 16.0934C22.3689 15.6711 22.0768 15.4428 21.7453 15.2602C21.6835 15.2259 21.6273 15.1917 21.5768 15.1689C21.4756 15.1175 21.3745 15.0661 21.2734 15.0148C20.2397 14.4555 19.4307 13.7593 18.8746 12.9261C18.7173 12.6921 18.5768 12.441 18.4645 12.1842C18.4139 12.0472 18.4195 11.9673 18.4532 11.8931C18.4869 11.8361 18.5319 11.7904 18.5881 11.7505C18.7678 11.6306 18.9476 11.5108 19.0712 11.4309C19.2903 11.2825 19.4701 11.1684 19.5824 11.0885C20.0038 10.786 20.3015 10.4664 20.4869 10.1069C20.7509 9.60467 20.7846 9.01686 20.5824 8.48612C20.3015 7.73281 19.6049 7.27056 18.7566 7.27056C18.5768 7.27056 18.4027 7.28768 18.2229 7.32763C18.1779 7.33904 18.1274 7.35045 18.0824 7.36187C18.0881 6.84825 18.0768 6.3061 18.0319 5.76965C17.8746 3.89209 17.2229 2.91051 16.5488 2.12866C16.1162 1.63787 15.6106 1.22127 15.0432 0.895979C14.0207 0.302464 12.8578 0 11.5938 0C10.3298 0 9.1725 0.302464 8.15004 0.895979C7.58264 1.22127 7.07703 1.63787 6.64445 2.12866C5.97031 2.91051 5.32425 3.89779 5.16134 5.76965C5.11639 6.3061 5.10516 6.84825 5.11077 7.36187C5.06583 7.35045 5.02089 7.33904 4.97033 7.32763C4.79617 7.28768 4.6164 7.27056 4.44225 7.27056C3.59395 7.27056 2.89733 7.73852 2.61644 8.48612C2.4142 9.01686 2.4479 9.60467 2.71194 10.1069C2.89733 10.4664 3.19508 10.786 3.61642 11.0885C3.72878 11.1684 3.90293 11.2825 4.12765 11.4309C4.24562 11.5108 4.41978 11.6249 4.59393 11.739C4.65573 11.779 4.70629 11.8304 4.74561 11.8931C4.77932 11.9673 4.78494 12.0472 4.72876 12.1956C4.6164 12.4467 4.48157 12.6921 4.32427 12.9204C3.77934 13.7307 2.99284 14.4213 1.99286 14.9748C1.46478 15.2602 0.914223 15.4485 0.678273 16.0934C0.504119 16.5785 0.616476 17.1263 1.06029 17.5943C1.22321 17.7655 1.41421 17.9139 1.62208 18.028C2.05465 18.2677 2.51532 18.456 2.99845 18.5873C3.09958 18.6158 3.18946 18.6558 3.27373 18.7128C3.43665 18.8555 3.41418 19.0724 3.62766 19.392C3.7344 19.5575 3.87484 19.7001 4.03214 19.8143C4.48719 20.1339 4.99842 20.151 5.53773 20.1738C6.02649 20.1909 6.57704 20.2138 7.21186 20.4249C7.4759 20.5105 7.74556 20.6817 8.06016 20.8815C8.81857 21.3551 9.85226 22 11.5882 22C13.3241 22 14.3634 21.3494 15.1274 20.8757C15.442 20.6817 15.7117 20.5105 15.9645 20.4249C16.5937 20.2138 17.1499 20.1909 17.6386 20.1738C18.1779 20.151 18.6892 20.1339 19.1442 19.8143C19.3352 19.6773 19.4925 19.5061 19.6049 19.3006C19.7622 19.0324 19.7566 18.8441 19.9026 18.7128C19.9813 18.6558 20.0712 18.6158 20.1611 18.593C20.6442 18.4617 21.1161 18.2734 21.5543 18.028C21.7734 17.9082 21.9756 17.7484 22.1442 17.5601L22.1498 17.5543C22.588 17.0978 22.6947 16.5613 22.5206 16.0934ZM20.9813 16.9323C20.0431 17.4573 19.4139 17.4003 18.9307 17.7198C18.515 17.9881 18.7622 18.5702 18.4645 18.7813C18.0937 19.0381 17.0038 18.7642 15.5993 19.2379C14.4364 19.6259 13.7005 20.7502 11.6107 20.7502C9.52081 20.7502 8.80172 19.6316 7.62196 19.2379C6.2175 18.7642 5.12763 19.0438 4.75685 18.7813C4.4591 18.5702 4.70067 17.9881 4.29057 17.7198C3.80181 17.4003 3.17823 17.4573 2.24004 16.9323C1.63893 16.5956 1.98162 16.3901 2.17824 16.2931C5.58268 14.621 6.12761 12.0358 6.15008 11.8418C6.17817 11.6078 6.21188 11.4252 5.95907 11.1912C5.7175 10.9629 4.63887 10.2838 4.33551 10.0726C3.84114 9.71881 3.62204 9.37069 3.78496 8.93696C3.89731 8.64021 4.17259 8.52607 4.4591 8.52607C4.54899 8.52607 4.63887 8.53748 4.72876 8.5546C5.27369 8.67445 5.80177 8.94838 6.10514 9.02828C6.14446 9.03969 6.17817 9.0454 6.2175 9.0454C6.38041 9.0454 6.43659 8.95979 6.42536 8.77147C6.39165 8.16654 6.30738 6.99092 6.40288 5.88949C6.5321 4.37717 7.00961 3.62387 7.58264 2.96187C7.85791 2.64228 9.14441 1.26122 11.6107 1.26122C14.0769 1.26122 15.3634 2.63658 15.6387 2.95616C16.2117 3.61816 16.6892 4.37147 16.8184 5.88379C16.9139 6.98521 16.8297 8.16083 16.7903 8.76576C16.7791 8.9655 16.8353 9.03969 16.9982 9.03969C17.0375 9.03969 17.0712 9.03398 17.1106 9.02257C17.4139 8.94838 17.942 8.66874 18.4869 8.5489C18.5768 8.52607 18.6667 8.52036 18.7566 8.52036C19.0431 8.52036 19.3184 8.6345 19.4307 8.93126C19.5937 9.36498 19.3746 9.7131 18.8802 10.0669C18.5824 10.2781 17.5038 10.9572 17.2566 11.1855C17.0038 11.4195 17.0375 11.6021 17.0656 11.8361C17.0881 12.0301 17.633 14.6153 21.0374 16.2874C21.2397 16.3844 21.5768 16.5956 20.9813 16.9323Z" fill="white"/>
</svg>
